<svg id="Layer_1" data-name="Layer 1" xmlns="http://www.w3.org/2000/svg" xmlns:xlink="http://www.w3.org/1999/xlink" viewBox="0 0 360 488"><defs><style>.cls-1{fill:url(#radial-gradient);}.cls-2{opacity:0.41;}.cls-3{fill:url(#radial-gradient-2);}.cls-4{fill:url(#radial-gradient-3);}.cls-5{fill:url(#radial-gradient-4);}.cls-6{opacity:0.22;}.cls-7{fill:url(#radial-gradient-5);}.cls-8{fill:url(#radial-gradient-6);}.cls-9{fill:url(#radial-gradient-7);}.cls-10{font-size:19.4px;font-family:DINPro-Medium, DIN Pro;font-weight:500;}.cls-10,.cls-17{fill:#e10e77;}.cls-11{letter-spacing:-0.01em;}.cls-12{letter-spacing:0em;}.cls-13{letter-spacing:-0.03em;}.cls-14,.cls-15{font-size:108.75px;}.cls-14{fill:#1284c6;}.cls-14,.cls-15,.cls-16{font-family:DINPro-Black, DIN Pro;font-weight:800;}.cls-15,.cls-18,.cls-25{fill:#fff;}.cls-16{font-size:108.76px;stroke-miterlimit:10;stroke-width:2.02px;}.cls-16,.cls-22,.cls-23,.cls-24,.cls-26{fill:none;}.cls-16,.cls-23{stroke:#e20e76;}.cls-18{font-size:24.07px;font-family:DINPro-Bold, DIN Pro;font-weight:700;letter-spacing:-0.01em;}.cls-19{letter-spacing:-0.04em;}.cls-20{letter-spacing:-0.01em;}.cls-21{letter-spacing:-0.08em;}.cls-22{stroke:#f3a41d;stroke-dasharray:19.27 10.07 287.65 0;}.cls-22,.cls-23,.cls-24{stroke-linecap:round;stroke-linejoin:round;stroke-width:2.8px;}.cls-24{stroke:#1284c6;stroke-dasharray:201.35 10.07 287.65 0;}</style><radialGradient id="radial-gradient" cx="61.19" cy="225.43" r="315.79" gradientTransform="matrix(0.99, 0.04, -0.03, 0.64, 179.69, 24.02)" gradientUnits="userSpaceOnUse"><stop offset="0" stop-color="#72127a"/><stop offset="1" stop-color="#380a3d"/></radialGradient><radialGradient id="radial-gradient-2" cx="-59.92" cy="637.1" r="444.68" gradientTransform="translate(381.96 137.86) rotate(90)" xlink:href="#radial-gradient"/><radialGradient id="radial-gradient-3" cx="-97.32" cy="598.47" r="1007.08" gradientTransform="translate(381.96 137.86) rotate(90)" xlink:href="#radial-gradient"/><radialGradient id="radial-gradient-4" cx="308.94" cy="452.42" r="466.83" gradientTransform="translate(381.96 137.86) rotate(90)" xlink:href="#radial-gradient"/><radialGradient id="radial-gradient-5" cx="-139.86" cy="791.54" r="1422.59" gradientTransform="translate(381.96 137.86) rotate(90)" xlink:href="#radial-gradient"/><radialGradient id="radial-gradient-6" cx="-359.5" cy="395.96" r="1007.08" gradientTransform="translate(381.96 137.86) rotate(90)" xlink:href="#radial-gradient"/><radialGradient id="radial-gradient-7" cx="-383.93" cy="669.16" r="1007.08" gradientTransform="translate(381.96 137.86) rotate(90)" xlink:href="#radial-gradient"/></defs><rect class="cls-1" x="-224.01" y="-43.21" width="809.61" height="378.88" transform="translate(327.02 -34.57) rotate(90)"/><g class="cls-2"><path class="cls-3" d="M84.67,140.52Q74.19,157.73,52.52,163.6t-39.27-3.76q-17.59-9.61-23.84-32.71Q-17.92,100,3.82,68.46-31.25,51.93-38.5,25.14-44.75,2-34.26-15.18T-2.1-38.26q21.66-5.87,39.4,3.72t24,32.67q7.26,26.81-14.7,58.75,17.85,8.32,28.12,18.56a54.27,54.27,0,0,1,14.2,24.76Q95.17,123.3,84.67,140.52ZM19.39,43.44q6.21-8.73,9.12-13.79A49.83,49.83,0,0,0,33.2,18.13,22.76,22.76,0,0,0,33.43,6Q30.81-3.73,22.83-8.29T4.89-10.17Q-5.1-7.45-9.67.5t-1.95,17.67A23.71,23.71,0,0,0-2.23,31.39Q5,36.61,19.39,43.44Zm7,90.35q8,4.72,18,2T58.76,125a23.19,23.19,0,0,0,1.77-17.77,23.46,23.46,0,0,0-9.21-13.11q-7.05-5.13-21.44-12Q23.46,91.3,20.76,96a52.37,52.37,0,0,0-4.62,11.2,22,22,0,0,0-.37,12.18A22.89,22.89,0,0,0,26.4,133.79Z"/></g><g class="cls-2"><path class="cls-4" d="M365.51,237.94q-14.34,23.55-44,31.56t-53.68-5.13q-24.08-13.17-32.61-44.73-10-37,19.71-80.22Q207,116.83,197.11,80.19q-8.54-31.57,5.8-55.11t44-31.56q29.63-8,53.88,5.08t32.8,44.68q9.9,36.63-20.11,80.32Q337.86,135,351.89,149a74.21,74.21,0,0,1,19.42,33.86Q379.85,214.4,365.51,237.94ZM276.26,105.22q8.48-11.93,12.47-18.86a67.63,67.63,0,0,0,6.4-15.75A31.13,31.13,0,0,0,295.45,54Q291.87,40.76,281,34.5t-24.54-2.57q-13.65,3.69-19.9,14.59t-2.67,24.15A32.38,32.38,0,0,0,246.7,88.74Q256.57,95.9,276.26,105.22Zm9.58,123.53q10.95,6.47,24.59,2.76t19.65-14.73q6-11,2.42-24.29a32.06,32.06,0,0,0-12.59-17.93q-9.65-7-29.31-16.33-8.78,12.42-12.47,18.85a71.27,71.27,0,0,0-6.31,15.31,30.07,30.07,0,0,0-.51,16.66Q274.88,222.3,285.84,228.75Z"/></g><path class="cls-5" d="M98.93,291.44q-5.16,8.46-15.82,11.35T63.79,301q-8.65-4.74-11.73-16.1-3.6-13.34,7.09-28.87-17.25-8.13-20.82-21.31-3.07-11.37,2.09-19.84t15.82-11.35q10.65-2.89,19.39,1.83t11.8,16.07Q91,234.57,80.2,250.29A48.31,48.31,0,0,1,94,259.42a26.65,26.65,0,0,1,7,12.18Q104.1,283,98.93,291.44ZM66.81,243.67c2-2.86,3.53-5.12,4.49-6.78a24.63,24.63,0,0,0,2.31-5.67,11.18,11.18,0,0,0,.11-6,11,11,0,0,0-5.21-7,11.19,11.19,0,0,0-8.83-.92,11.18,11.18,0,0,0-7.16,5.25,11,11,0,0,0-1,8.69,11.53,11.53,0,0,0,4.62,6.5A69.32,69.32,0,0,0,66.81,243.67Zm3.45,44.46a11,11,0,0,0,8.85,1,10.79,10.79,0,0,0,7.07-5.3,11.93,11.93,0,0,0-3.66-15.19A68.6,68.6,0,0,0,72,262.75q-3.17,4.47-4.49,6.78A25.38,25.38,0,0,0,65.22,275a10.91,10.91,0,0,0-.19,6A11.26,11.26,0,0,0,70.26,288.13Z"/><g class="cls-6"><path class="cls-7" d="M139.57,503.87q-19.32,7.1-40.37-2t-29-28q-7.95-18.87,1.73-41.3,11.35-26.31,48.8-37.74-17.53-35.47-6.3-61.51,9.67-22.44,29-29.53t40.37,2q21,9.07,29.14,28t-1.59,41.36q-11.23,26-49.08,37.62,9,18,10.69,32.7a55.38,55.38,0,0,1-4.39,28.82Q158.9,496.77,139.57,503.87Zm9.5-119.08q10.5-3,16.05-5.23a50.68,50.68,0,0,0,11.07-6.23,23.22,23.22,0,0,0,7.9-9.56q4.07-9.42.6-18.14t-13.15-12.9q-9.71-4.19-18.42-.72t-12.78,12.88a24.13,24.13,0,0,0-.89,16.53Q141.9,370.19,149.07,384.79ZM97.26,461.47q3.4,8.85,13.1,13t18.33.52q8.64-3.66,12.71-13.08a24,24,0,0,0,1-16.33Q140,437,132.82,422.45q-10.9,3.18-16,5.23a52.75,52.75,0,0,0-10.81,6,22.6,22.6,0,0,0-8,9.5A23.39,23.39,0,0,0,97.26,461.47Z"/></g><path class="cls-8" d="M277.78,349.65q3.78-8.17,13.09-11.87t17.6-.32q8.29,3.38,12.23,13.3,4.64,11.64-3.42,26.75,16.39,5.55,21,17.06,3.93,9.93.16,18.1t-13.09,11.86q-9.31,3.71-17.66.35t-12.3-13.28q-4.58-11.5,3.55-26.79A43.94,43.94,0,0,1,285.5,378a24.23,24.23,0,0,1-7.56-10.26Q274,357.81,277.78,349.65Zm33.87,39.74q-2.31,4.19-3.35,6.58a22.67,22.67,0,0,0-1.49,5.34A10.41,10.41,0,1,0,326.68,399a10.58,10.58,0,0,0-4.83-5.38A64.21,64.21,0,0,0,311.65,389.39ZM304,349.68a10,10,0,0,0-8.08,0,9.83,9.83,0,0,0-5.82,5.51,10.35,10.35,0,0,0,.11,8,10.47,10.47,0,0,0,4.75,5.35A63,63,0,0,0,305,372.73c1.59-2.9,2.71-5.1,3.35-6.58a23.44,23.44,0,0,0,1.48-5.2,9.79,9.79,0,0,0-.45-5.42A10.22,10.22,0,0,0,304,349.68Z"/><path class="cls-9" d="M4.58,325.22q3.78-8.16,13.09-11.86t17.6-.33q8.29,3.38,12.23,13.3,4.64,11.64-3.42,26.75,16.39,5.55,21,17.07,3.93,9.92.16,18.09T52.12,400.1q-9.32,3.7-17.66.35t-12.3-13.27q-4.57-11.52,3.55-26.8a44,44,0,0,1-13.42-6.8,24.38,24.38,0,0,1-7.55-10.27Q.81,333.4,4.58,325.22ZM38.45,365q-2.31,4.17-3.35,6.57a22.15,22.15,0,0,0-1.49,5.35,10.12,10.12,0,0,0,.51,5.4,10,10,0,0,0,5.42,5.79A10.18,10.18,0,0,0,47.6,388a10.17,10.17,0,0,0,5.91-5.47,10,10,0,0,0,0-7.93,10.6,10.6,0,0,0-4.83-5.39A64.75,64.75,0,0,0,38.45,365Zm-7.69-39.72a10,10,0,0,0-8.08,0,9.79,9.79,0,0,0-5.82,5.5,10.35,10.35,0,0,0,.11,8,10.47,10.47,0,0,0,4.75,5.35,63,63,0,0,0,10.11,4.21q2.39-4.35,3.35-6.57a23.6,23.6,0,0,0,1.48-5.2,9.83,9.83,0,0,0-.45-5.43A10.25,10.25,0,0,0,30.76,325.25Z"/><text class="cls-10" transform="translate(66.61 346.57)">BEZ UG<tspan class="cls-11" x="65.6" y="0">OV</tspan><tspan x="88.68" y="0">ORNE O</tspan><tspan class="cls-12" x="156.79" y="0">B</tspan><tspan class="cls-13" x="169.56" y="0">A</tspan><tspan x="181" y="0">VEZE</tspan></text><text class="cls-14" transform="translate(21.06 277.74)">200GB</text><text class="cls-15" transform="translate(17.39 275.29)">200GB</text><text class="cls-16" transform="translate(16.16 272.85)">200GB</text><rect class="cls-17" x="165.5" y="270.96" width="171.64" height="31.22" rx="7.38" transform="translate(-25.15 24.18) rotate(-5.25)"/><text class="cls-18" transform="translate(174.15 302.27) rotate(-5.25)">POK<tspan class="cls-19" x="45.91" y="0">L</tspan><tspan class="cls-20" x="58.67" y="0">ON NE</tspan><tspan class="cls-21" x="127.36" y="0">T</tspan><tspan x="139.18" y="0">A</tspan></text><g id="g847"><path id="path849" class="cls-22" d="M239.36,177.35h0a6.73,6.73,0,0,1-8.54,2.29,19.18,19.18,0,0,0-24.6,7.25,6.72,6.72,0,0,1-8.41,2.72h0a8.48,8.48,0,0,1-3.82-12,32.52,32.52,0,0,1,42.08-12.41A8.48,8.48,0,0,1,239.36,177.35Z"/></g><g id="g851"><path id="path853" class="cls-23" d="M256.43,152.21h0A6.77,6.77,0,0,1,247,154c-11.58-7.37-25.54-10-39-6s-23.74,13.72-29.47,26.19a6.76,6.76,0,0,1-8.89,3.63h0a8.52,8.52,0,0,1-4.24-11.18c7.38-16.15,20.73-28.8,38.1-33.92S239,131,253.93,140.51A8.53,8.53,0,0,1,256.43,152.21Z"/></g><g id="g855"><path id="path857" class="cls-24" d="M273.31,127.34h0a6.71,6.71,0,0,1-9.59,1.67c-18.91-13.24-42.33-18.22-64.81-11.59S159.47,141,150.78,162.34a6.72,6.72,0,0,1-9,3.8h0a8.51,8.51,0,0,1-4.39-10.84c10.29-25.3,30.38-45.3,57-53.15s54.34-2,76.71,13.71A8.5,8.5,0,0,1,273.31,127.34Z"/></g><g id="motive"><path class="cls-25" d="M141.14,402.61V403a5.62,5.62,0,1,1-5.62-5.62h.38v-1.95h-.38A7.58,7.58,0,1,0,143.1,403v-.37Z"/><path class="cls-25" d="M135.52,398.63a4.36,4.36,0,0,0,0,8.71h.38v-1.95h-.38a2.41,2.41,0,1,1,2.41-2.41v.38h1.94V403A4.35,4.35,0,0,0,135.52,398.63Z"/><path class="cls-25" d="M135.52,392.31A10.68,10.68,0,1,0,146.2,403,10.69,10.69,0,0,0,135.52,392.31ZM144.24,403a8.72,8.72,0,1,1-8.72-8.72A8.73,8.73,0,0,1,144.24,403Z"/></g><g id="name"><path class="cls-25" d="M158.16,400.38a4,4,0,0,0-2.63-1,3.53,3.53,0,0,0-3.55,3.8,3.27,3.27,0,0,0,3.55,3.46,3.43,3.43,0,0,0,2.33-.83v-1.83h-2.64V402.2h4.42v4.35a5.18,5.18,0,0,1-4.11,1.85c-3.87,0-5.46-2.55-5.46-5.26a5.25,5.25,0,0,1,5.46-5.58,5.49,5.49,0,0,1,3.84,1.59Z"/><polygon class="cls-25" points="163.19 397.85 163.19 406.37 168.5 406.37 168.5 408.18 161.25 408.18 161.25 397.85 163.19 397.85"/><path class="cls-25" d="M179.7,403.07a5.3,5.3,0,1,1-10.6,0,5.3,5.3,0,1,1,10.6,0m-8.68.05a3.38,3.38,0,1,0,6.76,0,3.39,3.39,0,1,0-6.76,0"/><path class="cls-25" d="M189.52,400.85a2.12,2.12,0,0,1-1.35,2,2.51,2.51,0,0,1,1.65,2.3c0,2.31-1.72,3-3.86,3h-4.9V397.85H186c2,0,3.56.92,3.56,3M183,402h3c1.22,0,1.62-.51,1.62-1.11s-.39-1.27-1.62-1.27h-3V402Zm0,4.36h3c.8,0,1.93-.26,1.93-1.23s-1.13-1.42-1.93-1.42h-3v2.65Z"/><path class="cls-25" d="M198.53,406.22h-5.4l-.88,1.95h-2.11l4.64-10.32h2.11l4.64,10.32h-2.12Zm-2.69-6.2-1.92,4.4h3.83Z"/><polygon class="cls-25" points="204.49 397.85 204.49 406.37 209.8 406.37 209.8 408.18 202.55 408.18 202.55 397.85 204.49 397.85"/><polygon class="cls-25" points="212.31 399.62 209.04 399.62 209.04 397.85 217.53 397.85 217.53 399.62 214.26 399.62 214.26 408.18 212.31 408.18 212.31 399.62"/><polygon class="cls-25" points="226.41 408.18 218.69 408.18 218.69 397.85 226.41 397.85 226.41 399.74 220.62 399.74 220.62 402.11 226.2 402.11 226.2 403.93 220.62 403.93 220.62 406.26 226.41 406.26 226.41 408.18"/><polygon class="cls-25" points="229.85 397.85 229.85 406.37 235.16 406.37 235.16 408.18 227.9 408.18 227.9 397.85 229.85 397.85"/></g><rect class="cls-25" x="106.48" y="362.36" width="147.04" height="0.67" rx="0.33"/><rect class="cls-26" y="64" width="360" height="360"/></svg>