<svg id="Layer_1" data-name="Layer 1" xmlns="http://www.w3.org/2000/svg" viewBox="0 0 169 165"><defs><style>.cls-1{fill:#001e36;}.cls-2{fill:#31a8ff;}</style></defs><g id="Layer_2" data-name="Layer 2"><g id="Surfaces"><g id="Photo_Surface" data-name="Photo Surface"><g id="Outline_no_shadow" data-name="Outline no shadow"><path class="cls-1" d="M0,.11H169V164.89H0Z"/></g></g></g><g id="Outlined_Mnemonics_Logos" data-name="Outlined Mnemonics Logos"><g id="Ps"><path class="cls-2" d="M38,115.67V42.43c1.48,0,2.71,0,4.64-.07,1.69-.07,3.45-.07,5.35-.14s3.95-.07,6.13-.14,4.3-.07,6.41-.07a41.35,41.35,0,0,1,14.5,2.18A25.19,25.19,0,0,1,84.5,50a22.47,22.47,0,0,1,5.14,8,26.8,26.8,0,0,1,1.62,9.15q0,9.09-4.23,15A24.13,24.13,0,0,1,75.7,90.74a45.67,45.67,0,0,1-15.85,2.39c-1.69,0-2.81,0-3.52-.07s-1.69-.07-3-.07V115.6a.88.88,0,0,1-.78,1H38.87C38.31,116.58,38,116.3,38,115.67ZM53.38,56V79.68c1,.07,1.9.14,2.74.14h3.73A26.42,26.42,0,0,0,68,78.56a12.16,12.16,0,0,0,5.78-3.74c1.47-1.76,2.18-4.15,2.18-7.25a11.6,11.6,0,0,0-1.62-6.27,10.26,10.26,0,0,0-4.93-4,20.62,20.62,0,0,0-8.31-1.41c-1.83,0-3.45,0-4.79.07a16.11,16.11,0,0,0-2.88.07Z"/><path class="cls-2" d="M135.2,75.39a25.08,25.08,0,0,0-6.76-2.4,37.37,37.37,0,0,0-7.89-.91,14.23,14.23,0,0,0-4.22.49A3.6,3.6,0,0,0,114.15,74a3.66,3.66,0,0,0-.57,1.9,3.09,3.09,0,0,0,.71,1.83,7.7,7.7,0,0,0,2.39,1.9c1.62.85,3.31,1.62,5,2.33a50.31,50.31,0,0,1,10.84,5.14,16.4,16.4,0,0,1,5.57,5.84,15.28,15.28,0,0,1,1.62,7.25,16.42,16.42,0,0,1-2.75,9.37,17.64,17.64,0,0,1-7.89,6.27,32.22,32.22,0,0,1-12.74,2.25,48.08,48.08,0,0,1-9.58-.92,28.15,28.15,0,0,1-7.18-2.25,1.39,1.39,0,0,1-.78-1.34V101.3a.74.74,0,0,1,.29-.63.53.53,0,0,1,.63.07,30.31,30.31,0,0,0,8.73,3.45,33,33,0,0,0,8.31,1,13.53,13.53,0,0,0,5.85-1,3.28,3.28,0,0,0,1.9-3,3.77,3.77,0,0,0-1.69-2.82c-1.13-.91-3.45-2-6.9-3.3a43,43,0,0,1-10-5.07,18.27,18.27,0,0,1-5.36-6,15.06,15.06,0,0,1-1.61-7.18,16.53,16.53,0,0,1,2.39-8.52,17.38,17.38,0,0,1,7.39-6.48c3.31-1.69,7.47-2.47,12.47-2.47a61.16,61.16,0,0,1,8.73.64A24.43,24.43,0,0,1,136,61.73a1.22,1.22,0,0,1,.71.63,3.51,3.51,0,0,1,.14.85V74.68a.87.87,0,0,1-.35.71A1.89,1.89,0,0,1,135.2,75.39Z"/></g></g></g></svg>