<svg id="Layer_1" data-name="Layer 1" xmlns="http://www.w3.org/2000/svg" viewBox="0 0 169 165"><defs><style>.cls-1{fill:#265787;}.cls-2{fill:#fff;}.cls-3{fill:#ea7600;}</style></defs><rect class="cls-1" width="169" height="165"/><path class="cls-2" d="M72.4,87.56a26.1,26.1,0,0,1,9.47-18.49,32.14,32.14,0,0,1,40.79,0,26.15,26.15,0,0,1,9.48,18.48,25.71,25.71,0,0,1-8,19.85,32.06,32.06,0,0,1-43.79,0,25.67,25.67,0,0,1-8-19.84Z"/><path class="cls-1" d="M86.92,88.22a13.37,13.37,0,0,1,4.86-9.48,16.48,16.48,0,0,1,20.93,0,13.4,13.4,0,0,1,4.86,9.48,13.15,13.15,0,0,1-4.09,10.18A16.43,16.43,0,0,1,91,98.4a13.11,13.11,0,0,1-4.09-10.18Z"/><path class="cls-3" d="M62.51,95.89a27.7,27.7,0,0,0,1.21,6.61,34.83,34.83,0,0,0,7.53,13A38.84,38.84,0,0,0,84.43,125,43.06,43.06,0,0,0,119,125a39,39,0,0,0,13.18-9.5,35.2,35.2,0,0,0,7.53-13.07,33.39,33.39,0,0,0-3.62-27.68A36.81,36.81,0,0,0,127.36,65h0L91.91,37.8l-.09-.07a7.88,7.88,0,0,0-8.8,0c-2.59,1.81-2.89,4.8-.58,6.69h0l14.79,12-45.09,0h-.06c-3.72,0-7.3,2.45-8,5.54s1.8,5.76,5.67,5.78h0l22.85,0L31.8,99.09l-.15.12c-3.85,3-5.09,7.84-2.67,10.94s7.69,3.16,11.57,0L62.81,92a33.72,33.72,0,0,0-.3,3.93Zm57.19,8.24a25.73,25.73,0,0,1-35.92.05,21.35,21.35,0,0,1-4.9-7.67,19.93,19.93,0,0,1-1.12-8.57,20.18,20.18,0,0,1,2.45-8.07,22.27,22.27,0,0,1,5.46-6.49,25.91,25.91,0,0,1,32.14,0,22.19,22.19,0,0,1,5.45,6.47,20.3,20.3,0,0,1,2.46,8.07,19.94,19.94,0,0,1-1.13,8.57,21.43,21.43,0,0,1-4.89,7.69Z"/></svg>