<svg id="Layer_1" data-name="Layer 1" xmlns="http://www.w3.org/2000/svg" viewBox="0 0 169 165"><defs><style>.cls-1{fill:#470137;}.cls-2{fill:#0acf83;}.cls-3{fill:#a259ff;}.cls-4{fill:#f24e1e;}.cls-5{fill:#ff7262;}.cls-6{fill:#1abcfe;}.cls-7{fill:#ff61f6;}</style></defs><rect class="cls-1" width="169" height="165"/><rect width="84.5" height="165"/><path id="path0_fill" data-name="path0 fill" class="cls-2" d="M41.12,115A10.83,10.83,0,0,0,52,104.16V93.33H41.12a10.83,10.83,0,1,0,0,21.65Z"/><path id="path1_fill" data-name="path1 fill" class="cls-3" d="M30.29,82.5A10.83,10.83,0,0,1,41.12,71.67H52V93.33H41.12A10.83,10.83,0,0,1,30.29,82.5Z"/><path id="path1_fill-2" data-name="path1 fill" class="cls-4" d="M30.29,60.84A10.83,10.83,0,0,1,41.12,50H52V71.67H41.12A10.83,10.83,0,0,1,30.29,60.84Z"/><path id="path2_fill" data-name="path2 fill" class="cls-5" d="M52,50H62.77a10.83,10.83,0,1,1,0,21.65H52Z"/><path id="path3_fill" data-name="path3 fill" class="cls-6" d="M73.6,82.5A10.83,10.83,0,1,1,62.77,71.67,10.83,10.83,0,0,1,73.6,82.5Z"/><g id="Outlined_Mnemonics_Logos" data-name="Outlined Mnemonics Logos"><g id="Xd"><path class="cls-7" d="M122,66.54l-10,16.58,10.72,17.58a.58.58,0,0,1,.07.4c0,.14-.17,0-.37.07h-7.67c-.54,0-.91,0-1.14-.37-.7-1.4-1.44-2.78-2.14-4.18s-1.48-2.78-2.28-4.22-1.61-2.88-2.41-4.36h-.07c-.7,1.44-1.47,2.88-2.24,4.32s-1.54,2.88-2.28,4.29-1.54,2.85-2.31,4.22c-.13.34-.4.37-.77.37H91.68c-.13,0-.23.07-.23-.1a.46.46,0,0,1,.06-.37l10.42-17.08L91.78,66.51c-.1-.13-.13-.27-.06-.33a.38.38,0,0,1,.33-.14h7.6a2.12,2.12,0,0,1,.47.07,1,1,0,0,1,.34.3c.63,1.44,1.37,2.88,2.14,4.32S104.17,73.58,105,75s1.54,2.82,2.24,4.26h.07c.7-1.48,1.44-2.92,2.18-4.32s1.51-2.82,2.28-4.22,1.5-2.85,2.24-4.22a.56.56,0,0,1,.2-.34.65.65,0,0,1,.44-.06h7.06a.3.3,0,0,1,.37.23s0,.17-.1.23Z"/><path class="cls-7" d="M137.46,101.87a16.51,16.51,0,0,1-7.2-1.5,11.69,11.69,0,0,1-5.06-4.56,14.45,14.45,0,0,1-1.84-7.63,13.8,13.8,0,0,1,1.84-7.07,14.05,14.05,0,0,1,5.33-5.19A17.19,17.19,0,0,1,139,74a6.58,6.58,0,0,1,.7,0c.31,0,.64,0,1,.07V63.5c0-.24.1-.37.34-.37h6.8a.3.3,0,0,1,.33.23v32c0,.6,0,1.27.07,2s.1,1.37.13,1.94a.55.55,0,0,1-.33.54,25.77,25.77,0,0,1-5.46,1.61A29.73,29.73,0,0,1,137.46,101.87Zm3.28-6.69V80.44c-.3-.06-.6-.13-.9-.17s-.74-.06-1.11-.06a8.28,8.28,0,0,0-3.78.87,7.56,7.56,0,0,0-2.85,2.48,7.46,7.46,0,0,0-1.1,4.25,9.07,9.07,0,0,0,.57,3.45,6.51,6.51,0,0,0,1.5,2.38A5.89,5.89,0,0,0,135.35,95a8.82,8.82,0,0,0,2.78.43c.5,0,1,0,1.41-.07A2.86,2.86,0,0,0,140.74,95.18Z"/></g></g></svg>