<svg id="Layer_1" data-name="Layer 1" xmlns="http://www.w3.org/2000/svg" viewBox="0 0 169 165"><defs><style>.cls-1{fill:#001e36;}.cls-2{fill:#2d9be0;}.cls-3{fill:#31a8ff;}.cls-4{fill:#025893;}.cls-5{fill:#004368;}.cls-6{fill:#fff;}</style></defs><rect class="cls-1" width="169" height="165"/><path class="cls-2" d="M92.87,92.4c-.85.83-1.74,1.64-2.56,2.5-3.22,3.36-6.41,6.75-9.63,10.12a3.81,3.81,0,0,0-1,2.81q0,8.52,0,17.06a5.57,5.57,0,0,1-.34,1.35h-1l-2.93-1.86c0-6.15,0-12.29,0-18.44a3.12,3.12,0,0,1,.59-1.88c1.5-1.75,3.1-3.39,4.68-5.07q3.21-3.4,6.45-6.79c3-3.1,6-6.18,8.92-9.28.71-.74,1.37-1.52,2.05-2.28l5.49,0a2.76,2.76,0,0,1-.3.5c-1.14,1.21-2.31,2.41-3.44,3.63a5.16,5.16,0,0,0-.56.82c-.61.58-1.24,1.15-1.82,1.76C96,89,94.42,90.72,92.87,92.4Z"/><path class="cls-3" d="M98.15,80.64c-.68.76-1.34,1.54-2.05,2.28-3,3.1-5.95,6.18-8.92,9.28Q83.94,95.58,80.73,99c-1.58,1.68-3.18,3.32-4.68,5.07a3.12,3.12,0,0,0-.59,1.88c0,6.15,0,12.29,0,18.44-1.85-1-3.7-2.09-5.56-3.11a1.65,1.65,0,0,1-.93-1.65c0-4.09,0-8.19,0-12.29a3.09,3.09,0,0,0-.93-2.28c-2.4-2.47-4.76-5-7.13-7.45l-6.51-6.85c-2.33-2.45-4.67-4.89-7-7.35-.83-.88-1.59-1.82-2.38-2.74.25,0,.51,0,.76,0H81.69Z"/><path class="cls-4" d="M92.87,92.4c1.55-1.68,3.09-3.36,4.65-5,.58-.61,1.21-1.18,1.82-1.76a9.9,9.9,0,0,0,9.9-2.58,10.39,10.39,0,0,0-5.76-17.72c-4.51-.64-8,1.19-10.48,5a3.9,3.9,0,0,1-.81.17c-3.38,0-6.76,0-10.14,0-.78-.45-1.55-.91-2.33-1.35a1.88,1.88,0,0,1-.85-2.86q1.36-2.55,2.76-5.09a1.88,1.88,0,0,1,2.8-.83c.78.41,1.56.82,2.32,1.26a1.87,1.87,0,0,0,2.36-.22,20,20,0,0,1,6.62-3.94A1.81,1.81,0,0,0,97,55.59c0-.91,0-1.82,0-2.73a1.84,1.84,0,0,1,2-2h5.89A1.86,1.86,0,0,1,107,52.92c0,.88,0,1.76,0,2.64a1.85,1.85,0,0,0,1.33,2,19.52,19.52,0,0,1,6.54,3.9,1.88,1.88,0,0,0,2.36.25c.86-.48,1.75-.93,2.63-1.38.57,1.08,1.16,2.14,1.7,3.24a1.77,1.77,0,0,1-.78,2.53c-.51.3-1,.58-1.56.87-2,1.11-2.18,1.53-1.91,3.38a25.47,25.47,0,0,1,0,7.94c-.91,5.51-6.1,11.6-12.13,12.29a2.12,2.12,0,0,0-1.9,2.24c0,.82,0,1.65,0,2.47a1.86,1.86,0,0,1-2.08,2.11H97c0-.6,0-1.19,0-1.79a1.92,1.92,0,0,0-1.34-2C94.72,93.24,93.8,92.81,92.87,92.4Z"/><path class="cls-5" d="M82.05,70.53c3.38,0,6.76,0,10.14,0a3.9,3.9,0,0,0,.81-.17,4.36,4.36,0,0,0,.86.17H102c1.34,0,1.8.45,1.81,1.77,0,2.53,0,5,0,7.58a3.13,3.13,0,0,1-.2.77l-5.49,0-16.46,0H45.77c-.25,0-.51,0-.76,0a3.66,3.66,0,0,1-.18-.78c0-2.51,0-5,0-7.52,0-1.37.47-1.82,1.86-1.82Z"/><path class="cls-5" d="M97,97.37h4.18a1.86,1.86,0,0,0,2.08-2.11c0-.82,0-1.65,0-2.47a2.12,2.12,0,0,1,1.9-2.24c6-.69,11.22-6.78,12.13-12.29a25.47,25.47,0,0,0,0-7.94c-.27-1.85-.06-2.27,1.91-3.38.52-.29,1-.57,1.56-.87a1.77,1.77,0,0,0,.78-2.53c-.54-1.1-1.13-2.16-1.7-3.24a1.7,1.7,0,0,1,2.39.72c1,1.85,2.07,3.71,3,5.6a1.77,1.77,0,0,1-.74,2.43c-.83.49-1.69.92-2.53,1.39a2.1,2.1,0,0,0-1.11,2.34,49.82,49.82,0,0,1,0,5.6,2.12,2.12,0,0,0,1.16,2.4c.77.42,1.55.82,2.32,1.25a1.86,1.86,0,0,1,.84,2.67c-.95,1.8-1.92,3.6-2.92,5.38a1.87,1.87,0,0,1-2.7.76c-.8-.41-1.59-.87-2.39-1.29a1.86,1.86,0,0,0-2.41.3,19.81,19.81,0,0,1-6.32,3.77,1.87,1.87,0,0,0-1.47,2.1c0,.86,0,1.71,0,2.56a1.89,1.89,0,0,1-1.9,2.08c-2.08.07-4.16.08-6.23,0C97.4,100.3,96.85,99.34,97,97.37Z"/><path class="cls-6" d="M55.05,59.43a4.43,4.43,0,0,1,0-8.85,4.43,4.43,0,1,1,0,8.85Zm0-6.2a1.81,1.81,0,0,0-1.82,1.84,1.89,1.89,0,0,0,1.83,1.77A1.8,1.8,0,0,0,56.86,55,1.73,1.73,0,0,0,55.06,53.23Z"/><path class="cls-6" d="M75.08,56a4.44,4.44,0,0,1-4.42-4.38,4.43,4.43,0,1,1,8.86-.06A4.42,4.42,0,0,1,75.08,56Zm0-6.2a1.82,1.82,0,0,0-1.79,1.79,1.84,1.84,0,0,0,3.67,0A1.82,1.82,0,0,0,75.05,49.83Z"/><path class="cls-6" d="M67.9,61.4c0,.91,0,1.82,0,2.73a1.32,1.32,0,0,1-1.33,1.45,1.29,1.29,0,0,1-1.28-1.42q-.06-2.77,0-5.55a1.31,1.31,0,1,1,2.61,0C67.91,59.57,67.9,60.48,67.9,61.4Z"/><path class="cls-6" d="M62.32,43c0,.91,0,1.83,0,2.74a1.29,1.29,0,0,1-1.22,1.37,1.31,1.31,0,0,1-1.35-1.35c0-1.88,0-3.75,0-5.63a1.3,1.3,0,1,1,2.59.06C62.33,41.13,62.32,42.06,62.32,43Z"/><path class="cls-6" d="M46.08,47.83c0,.91,0,1.82,0,2.73a1.29,1.29,0,1,1-2.58,0c0-1.88,0-3.76,0-5.63a1.29,1.29,0,1,1,2.58,0C46.1,45.89,46.08,46.86,46.08,47.83Z"/><path class="cls-6" d="M88.79,45.87c0,.91,0,1.82,0,2.73A1.29,1.29,0,0,1,87.49,50a1.33,1.33,0,0,1-1.28-1.42q0-2.77,0-5.55a1.29,1.29,0,1,1,2.58,0C88.8,44,88.79,44.93,88.79,45.87Z"/><path class="cls-3" d="M103.64,80.66a3.13,3.13,0,0,0,.2-.77c0-2.53,0-5,0-7.58,0-1.32-.47-1.77-1.81-1.77H93.86a4.36,4.36,0,0,1-.86-.17c2.45-3.86,6-5.69,10.48-5A10.39,10.39,0,0,1,109.24,83a9.9,9.9,0,0,1-9.9,2.58,5.16,5.16,0,0,1,.56-.82c1.13-1.22,2.3-2.42,3.44-3.63A2.76,2.76,0,0,0,103.64,80.66Z"/></svg>