<svg id="Layer_1" data-name="Layer 1" xmlns="http://www.w3.org/2000/svg" viewBox="0 0 169 165"><defs><style>.cls-1{fill:#020202;}.cls-2{fill:#3c8bd9;}.cls-3{fill:#fabc04;}.cls-4{fill:#34a852;}.cls-5{fill:#f8ab00;}.cls-6{fill:#e37300;}.cls-7{fill:#747474;}</style></defs><rect class="cls-1" width="169" height="165"/><path class="cls-2" d="M40.92,65.82A8.94,8.94,0,0,1,43,62.52a8.16,8.16,0,0,1,12.83,1.91C57.8,68,59.88,71.5,61.9,75,65.28,80.91,68.7,86.79,72,92.68a8.12,8.12,0,1,1-14.2,7.88c-3-5.16-6-10.33-8.92-15.48a1.44,1.44,0,0,0-.22-.31,3.18,3.18,0,0,1-.65-1c-1.32-2.32-2.67-4.61-4-6.91-.84-1.5-1.73-3-2.57-4.46a8.11,8.11,0,0,1-1.08-4.33,6,6,0,0,1,.51-2.28"/><path class="cls-3" d="M40.92,65.82A11.2,11.2,0,0,0,40.54,68a8.58,8.58,0,0,0,1.18,4.61c2.16,3.72,4.33,7.45,6.47,11.18.19.34.35.67.55,1-1.18,2-2.36,4.06-3.56,6.11q-2.48,4.28-5,8.56a.11.11,0,0,1-.12-.09,1.24,1.24,0,0,1,.08-.46,7.89,7.89,0,0,0-1.89-7.8,7.5,7.5,0,0,0-4.61-2.38,8,8,0,0,0-6.31,1.75c-.33.26-.55.63-.94.83a.13.13,0,0,1-.14-.1l2.81-4.89Q34.92,76.16,40.78,66c0-.08.1-.14.14-.22"/><path class="cls-4" d="M26.36,91.25c.37-.33.72-.69,1.12-1a8.12,8.12,0,0,1,13,4.93,8.71,8.71,0,0,1-.32,4.18,2.09,2.09,0,0,1-.08.34c-.17.31-.33.65-.53,1a7.91,7.91,0,0,1-7.7,4.11,8.07,8.07,0,0,1-7.45-7,7.9,7.9,0,0,1,1.08-5.22c.2-.36.44-.67.65-1,.1-.08.06-.24.24-.24"/><g id="g6628"><path id="path3806" class="cls-5" d="M131.14,60.89v42.57c0,4.77,3.29,7.42,6.77,7.42,3.23,0,6.78-2.26,6.78-7.42V61.21a6.78,6.78,0,0,0-6.78-7.09A6.88,6.88,0,0,0,131.14,60.89Z"/><path id="path3808" class="cls-6" d="M113.4,82.5v21c0,4.77,3.29,7.42,6.77,7.42,3.23,0,6.78-2.26,6.78-7.42V82.82a6.78,6.78,0,0,0-6.78-7.09,6.89,6.89,0,0,0-6.77,6.77Z"/><path id="path3810" class="cls-6" d="M109.21,104.11a6.78,6.78,0,1,1-6.77-6.77,6.77,6.77,0,0,1,6.77,6.77"/></g><rect class="cls-7" x="84.11" y="14" width="0.78" height="137"/></svg>