<svg id="Layer_1" data-name="Layer 1" xmlns="http://www.w3.org/2000/svg" viewBox="0 0 169 165"><defs><style>.cls-1{fill:#020202;}.cls-2{fill:#747474;}.cls-3{fill:#fff;}.cls-4{fill:#e44d26;}.cls-5{fill:#f16529;}.cls-6{fill:#ebebeb;}.cls-7{fill:#264de4;}.cls-8{fill:#2965f1;}</style></defs><rect class="cls-1" width="169" height="165"/><rect class="cls-2" x="84.11" y="14" width="0.78" height="137"/><path class="cls-3" d="M25.43,47.13h3.18v3.15h2.93V47.13h3.18v9.54H31.54V53.49h-2.9v3.18H25.43m13.49-6.36H36.11V47.13h8.8v3.18H42.1v6.36H38.92m7.39-9.54h3.33l2,3.36,2-3.36h3.33v9.54H53.88V51.94l-2.22,3.43-2.23-3.43v4.73H46.31m12.32-9.54h3.18v6.39h4.5v3.15H58.63"/><path class="cls-4" d="M25.32,112.2,20.76,61H70.89l-4.56,51.15-20.55,5.69"/><path class="cls-5" d="M45.83,113.52V65.23H66.31L62.4,108.89"/><path class="cls-6" d="M30.08,71.49H45.83v6.27H37l.58,6.43h8.29v6.25h-14m.28,3.15h6.3l.44,5,7,1.88V107L33,103.44"/><path class="cls-3" d="M61.52,71.49H45.8v6.27H60.94m-.57,6.43H45.8v6.27h7.73l-.73,8.15-7,1.88V107l12.85-3.57"/><g id="layer1"><g id="g3013"><polygon id="polygon2989" class="cls-7" points="148.24 61.03 143.67 112.18 123.15 117.87 102.68 112.19 98.12 61.03 148.24 61.03"/><polygon id="polygon2991" class="cls-8" points="139.76 108.92 143.66 65.22 123.18 65.22 123.18 113.52 139.76 108.92"/><polygon id="polygon2993" class="cls-6" points="108.58 84.19 109.14 90.46 123.18 90.46 123.18 84.19 108.58 84.19"/><polygon id="polygon2995" class="cls-6" points="123.18 71.49 123.16 71.49 107.45 71.49 108.02 77.76 123.18 77.76 123.18 71.49"/><polygon id="polygon2997" class="cls-6" points="123.18 107.01 123.18 100.48 123.15 100.49 116.17 98.6 115.72 93.6 112.32 93.6 109.42 93.6 110.3 103.45 123.15 107.02 123.18 107.01"/><path id="path2999" class="cls-3" d="M109.92,47.13h7.59v3.18h-4.42v3.18h4.42v3.18h-7.59Z"/><path id="path3001" class="cls-3" d="M119,47.13h7.6V49.9h-4.42v.55h4.42V56.8H119V53.9h4.43v-.55H119Z"/><path id="path3003" class="cls-3" d="M128.15,47.13h7.6V49.9h-4.42v.55h4.42V56.8h-7.6V53.9h4.42v-.55h-4.42Z"/><polygon id="polygon3005" class="cls-3" points="130.88 90.46 130.15 98.6 123.16 100.49 123.16 107.01 136.02 103.45 136.11 102.39 137.59 85.87 137.74 84.19 138.87 71.49 123.16 71.49 123.16 77.76 132 77.76 131.43 84.19 123.16 84.19 123.16 90.46 130.88 90.46"/></g></g></svg>