<svg id="Layer_1" data-name="Layer 1" xmlns="http://www.w3.org/2000/svg" xmlns:xlink="http://www.w3.org/1999/xlink" viewBox="0 0 169 165"><defs><style>.cls-1{fill:#282828;}.cls-2{fill:url(#linear-gradient);}.cls-3{fill:url(#linear-gradient-2);}.cls-4{fill:url(#linear-gradient-3);}.cls-5{fill:url(#linear-gradient-4);}.cls-6{fill:url(#linear-gradient-5);}.cls-7{fill:url(#linear-gradient-6);}.cls-8{fill:#0082fb;}.cls-9{fill:url(#linear-gradient-7);}.cls-10{fill:url(#linear-gradient-8);}.cls-11{fill:url(#linear-gradient-9);}.cls-12{fill:url(#linear-gradient-10);}.cls-13{fill:url(#linear-gradient-11);}.cls-14{fill:url(#linear-gradient-12);}.cls-15{fill:url(#linear-gradient-13);}</style><linearGradient id="linear-gradient" x1="112.17" y1="614.67" x2="88.58" y2="645.64" gradientTransform="matrix(1, 0, 0, -1, -20.96, 700.34)" gradientUnits="userSpaceOnUse"><stop offset="0" stop-color="#0867df"/><stop offset="0.45" stop-color="#0668e1"/><stop offset="0.86" stop-color="#0064e0"/></linearGradient><linearGradient id="linear-gradient-2" x1="66.2" y1="634.72" x2="82.39" y2="647.02" gradientTransform="matrix(1, 0, 0, -1, -20.96, 700.34)" gradientUnits="userSpaceOnUse"><stop offset="0.13" stop-color="#0064df"/><stop offset="1" stop-color="#0064e0"/></linearGradient><linearGradient id="linear-gradient-3" x1="59.34" y1="616.7" x2="65.82" y2="633.05" gradientTransform="matrix(1, 0, 0, -1, -20.96, 700.34)" gradientUnits="userSpaceOnUse"><stop offset="0.01" stop-color="#0072ec"/><stop offset="0.69" stop-color="#0064df"/></linearGradient><linearGradient id="linear-gradient-4" x1="58.46" y1="604.9" x2="59.21" y2="614.89" gradientTransform="matrix(1, 0, 0, -1, -20.96, 700.34)" gradientUnits="userSpaceOnUse"><stop offset="0.07" stop-color="#007cf6"/><stop offset="0.99" stop-color="#0072ec"/></linearGradient><linearGradient id="linear-gradient-5" x1="58.85" y1="599.49" x2="58.32" y2="603.49" gradientTransform="matrix(1, 0, 0, -1, -20.96, 700.34)" gradientUnits="userSpaceOnUse"><stop offset="0.07" stop-color="#007ff9"/><stop offset="1" stop-color="#007cf6"/></linearGradient><linearGradient id="linear-gradient-6" x1="58.55" y1="598.45" x2="61.9" y2="591.35" gradientTransform="matrix(1, 0, 0, -1, -20.96, 700.34)" gradientUnits="userSpaceOnUse"><stop offset="0.07" stop-color="#007ff9"/><stop offset="1" stop-color="#0082fb"/></linearGradient><linearGradient id="linear-gradient-7" x1="110.08" y1="632.78" x2="114.5" y2="638.91" gradientTransform="matrix(1, 0, 0, -1, -20.96, 700.34)" gradientUnits="userSpaceOnUse"><stop offset="0.28" stop-color="#007ff8"/><stop offset="0.91" stop-color="#0082fb"/></linearGradient><linearGradient id="linear-gradient-8" x1="143.76" y1="640.72" x2="153.01" y2="606.65" gradientTransform="matrix(1, 0, 0, -1, -20.96, 700.34)" gradientUnits="userSpaceOnUse"><stop offset="0" stop-color="#0082fb"/><stop offset="1" stop-color="#0081fa"/></linearGradient><linearGradient id="linear-gradient-9" x1="155.26" y1="605.37" x2="149.41" y2="593.52" gradientTransform="matrix(1, 0, 0, -1, -20.96, 700.34)" gradientUnits="userSpaceOnUse"><stop offset="0.06" stop-color="#0081fa"/><stop offset="1" stop-color="#0080f9"/></linearGradient><linearGradient id="linear-gradient-10" x1="144.74" y1="587.25" x2="150.22" y2="591" gradientTransform="matrix(1, 0, 0, -1, -20.96, 700.34)" gradientUnits="userSpaceOnUse"><stop offset="0" stop-color="#027af3"/><stop offset="1" stop-color="#0080f9"/></linearGradient><linearGradient id="linear-gradient-11" x1="136.14" y1="586.51" x2="143.77" y2="586.51" gradientTransform="matrix(1, 0, 0, -1, -20.96, 700.34)" gradientUnits="userSpaceOnUse"><stop offset="0" stop-color="#0377ef"/><stop offset="1" stop-color="#0279f1"/></linearGradient><linearGradient id="linear-gradient-12" x1="129.52" y1="590.72" x2="135" y2="587.49" gradientTransform="matrix(1, 0, 0, -1, -20.96, 700.34)" gradientUnits="userSpaceOnUse"><stop offset="0" stop-color="#0471e9"/><stop offset="1" stop-color="#0377ef"/></linearGradient><linearGradient id="linear-gradient-13" x1="112.81" y1="614.46" x2="130.34" y2="592.39" gradientTransform="matrix(1, 0, 0, -1, -20.96, 700.34)" gradientUnits="userSpaceOnUse"><stop offset="0.28" stop-color="#0867df"/><stop offset="1" stop-color="#0471e9"/></linearGradient></defs><rect class="cls-1" width="169" height="165"/><path class="cls-2" d="M62.06,49.83H62l-.14,11.43h.08c7.55,0,13.4,5.94,26.13,27.33l.8,1.3,0,.09L96,79.37l-.06-.09c-1.67-2.72-3.29-5.23-4.8-7.51-1.79-2.65-3.49-5-5.17-7.12C77.52,53.9,70.5,49.83,62.06,49.83Z"/><path class="cls-3" d="M62,49.83c-8.46,0-15.93,5.54-21.35,13.86l-.06.06,10,5.39a.09.09,0,0,1,.06-.08c3.15-4.73,7.09-7.76,11.28-7.81h.09l.14-11.44Z"/><path class="cls-4" d="M40.63,63.69l-.05.06A56.44,56.44,0,0,0,33,83.37v.08l11.16,2.61V86A46.56,46.56,0,0,1,50.5,69.18a.16.16,0,0,0,.06-.08Z"/><path class="cls-5" d="M44.11,86,33,83.37v.08a64,64,0,0,0-1.19,12.19v.11l11.43,1V96a53.88,53.88,0,0,1,.92-9.9A.21.21,0,0,1,44.11,86Z"/><path class="cls-6" d="M43.51,100.31a24.94,24.94,0,0,1-.34-3.55v-.11l-11.42-1v.1h0a38.09,38.09,0,0,0,.62,7.15V103l11.15-2.55A.78.78,0,0,1,43.51,100.31Z"/><path class="cls-7" d="M46.11,106.21a11.43,11.43,0,0,1-2.57-5.81v-.09l-11.15,2.56V103a23.24,23.24,0,0,0,4.87,10.88.16.16,0,0,0,.06.08l8.87-7.63A.31.31,0,0,0,46.11,106.21Z"/><path class="cls-8" d="M79.12,74.57C72.41,84.85,68.35,91.28,68.35,91.28c-8.95,14-12,17.14-17,17.14a6.71,6.71,0,0,1-5.14-2.16l-.07-.07-8.86,7.63s0,.05.07.07a17.25,17.25,0,0,0,13.6,5.9c8.64,0,14.83-4.05,25.87-23.31,0,0,4.59-8.12,7.77-13.71C82.56,79.65,80.78,76.92,79.12,74.57Z"/><path class="cls-9" d="M91.11,58.32l-.07.07a72.07,72.07,0,0,0-5.1,6.2c1.65,2.11,3.38,4.47,5.17,7.14a55.61,55.61,0,0,1,6-7.91l.08-.07Z"/><path class="cls-8" d="M123.71,57.31c-4.69-4.72-10.28-7.48-16.23-7.48-6.29,0-11.6,3.44-16.37,8.49l-.07.07,6.07,5.42.08-.07c3.15-3.28,6.2-4.9,9.59-4.9h0c3.64,0,7,1.71,10,4.7l.06.08,7-6.24A.37.37,0,0,1,123.71,57.31Z"/><path class="cls-10" d="M137.24,94.12c-.27-15.19-5.6-28.73-13.48-36.74l-.07-.07-7,6.23.08.08c5.93,6.09,10,17.41,10.39,30.5v.11h10.08A1,1,0,0,1,137.24,94.12Z"/><path class="cls-11" d="M137.25,94.23v-.11H127.17v2a19.12,19.12,0,0,1-1.6,8.53l0,.08,7.5,7.81.06-.09c2.73-4.2,4.16-10,4.16-17.12C137.25,94.94,137.25,94.56,137.25,94.23Z"/><path class="cls-12" d="M125.57,104.61l0,.08a6.56,6.56,0,0,1-4,3.43l3.41,10.78c.45-.16.89-.33,1.32-.52l.39-.17.21-.11a15.7,15.7,0,0,0,5.72-4.92c.09-.15.2-.27.28-.4a3,3,0,0,1,.2-.28.41.41,0,0,1,.05-.09Z"/><path class="cls-13" d="M119.3,108.43a7.6,7.6,0,0,1-3.16-.6l-3.5,11a19.07,19.07,0,0,0,6.4,1,17.83,17.83,0,0,0,5.93-.94l-3.37-10.74A8.14,8.14,0,0,1,119.3,108.43Z"/><path class="cls-14" d="M112.3,104.66l-.07-.07L104.17,113l.07.07a21,21,0,0,0,8.51,5.86l3.51-11A11.44,11.44,0,0,1,112.3,104.66Z"/><path class="cls-15" d="M112.23,104.59c-2.4-2.8-5.41-7.49-10.12-15L96,79.3l-.06-.09L88.8,89.88l0,.08,4.35,7.3c4.22,7,7.65,12.13,11,15.69l.07.07,8.06-8.38Z"/></svg>