<svg id="Layer_1" data-name="Layer 1" xmlns="http://www.w3.org/2000/svg" xmlns:xlink="http://www.w3.org/1999/xlink" viewBox="0 0 169 165"><defs><style>.cls-1{fill:#282828;}.cls-2{opacity:0.2;}.cls-3{fill:#fff;}.cls-4{opacity:0.12;}.cls-5{fill:url(#linear-gradient);}.cls-6{fill:url(#linear-gradient-2);}.cls-7{fill:url(#linear-gradient-3);}.cls-8{fill:url(#linear-gradient-4);}.cls-9{fill:url(#linear-gradient-5);}.cls-10{fill:none;}</style><linearGradient id="linear-gradient" x1="102.45" y1="128.93" x2="102.45" y2="48.43" gradientTransform="matrix(1, 0, 0, -1, 0, 166)" gradientUnits="userSpaceOnUse"><stop offset="0" stop-color="#ffb900"/><stop offset="0.17" stop-color="#ef8400"/><stop offset="0.31" stop-color="#e25c01"/><stop offset="0.43" stop-color="#db4401"/><stop offset="0.5" stop-color="#d83b01"/></linearGradient><linearGradient id="linear-gradient-2" x1="87.93" y1="126.09" x2="45.3" y2="65.21" gradientTransform="matrix(1, 0, 0, -1, 0, 166)" gradientUnits="userSpaceOnUse"><stop offset="0" stop-color="#800600"/><stop offset="0.6" stop-color="#c72127"/><stop offset="0.73" stop-color="#c13959"/><stop offset="0.85" stop-color="#bc4b81"/><stop offset="0.94" stop-color="#b95799"/><stop offset="1" stop-color="#b85ba2"/></linearGradient><linearGradient id="linear-gradient-3" x1="66.15" y1="51.38" x2="121.8" y2="51.38" gradientTransform="matrix(1, 0, 0, -1, 0, 166)" gradientUnits="userSpaceOnUse"><stop offset="0" stop-color="#f32b44"/><stop offset="0.6" stop-color="#a4070a"/></linearGradient><linearGradient id="linear-gradient-4" x1="88.8" y1="127.32" x2="79.78" y2="114.44" gradientTransform="matrix(1, 0, 0, -1, 0, 166)" gradientUnits="userSpaceOnUse"><stop offset="0" stop-opacity="0.4"/><stop offset="1" stop-opacity="0"/></linearGradient><linearGradient id="linear-gradient-5" x1="103.97" y1="50.13" x2="79.05" y2="52.31" xlink:href="#linear-gradient-4"/></defs><rect class="cls-1" width="169" height="165"/><g id="Icons_-_Color" data-name="Icons - Color"><g id="Desktop_-_Full_Bleed" data-name="Desktop - Full Bleed"><g class="cls-2"><path class="cls-3" d="M68.09,105.61a4.38,4.38,0,0,0-2.16,8.16l15.44,8.75a8.5,8.5,0,0,0,4.18,1.1,8,8,0,0,0,2.32-.34l23.23-6.62a8.3,8.3,0,0,0,6-8v-3.07Z"/></g><g class="cls-4"><path class="cls-3" d="M68.09,105.61a4.38,4.38,0,0,0-2.16,8.16l15.44,8.75a8.5,8.5,0,0,0,4.18,1.1,8,8,0,0,0,2.32-.34l23.23-6.62a8.3,8.3,0,0,0,6-8v-3.07Z"/></g><path class="cls-5" d="M87.78,41.72,94,56v49.62l-6.15,17.67,23.23-6.62a8.3,8.3,0,0,0,6-8V56.32a8.28,8.28,0,0,0-6-8Z"/><path class="cls-6" d="M58.32,105.08l6.8-3.67a6,6,0,0,0,3.07-5.21V69.49a5.93,5.93,0,0,1,3.9-5.57L94,56V50a8.6,8.6,0,0,0-8.6-8.58h0a8.73,8.73,0,0,0-4.26,1.13L56.06,56.83A8.28,8.28,0,0,0,51.88,64v37.19a4.36,4.36,0,0,0,6.44,3.85Z"/><path class="cls-7" d="M94,105.61H68.09a4.38,4.38,0,0,0-2.16,8.16l15.44,8.75a8.5,8.5,0,0,0,4.18,1.1h0a8,8,0,0,0,2.32-.34A8.45,8.45,0,0,0,94,115.12Z"/><path class="cls-8" d="M58.32,105.08l6.8-3.67a6,6,0,0,0,3.07-5.21V69.49a5.93,5.93,0,0,1,3.9-5.57L94,56V50a8.6,8.6,0,0,0-8.6-8.58h0a8.73,8.73,0,0,0-4.26,1.13L56.06,56.83A8.28,8.28,0,0,0,51.88,64v37.19a4.36,4.36,0,0,0,6.44,3.85Z"/><path class="cls-9" d="M94,105.61H68.09a4.38,4.38,0,0,0-2.16,8.16l15.44,8.75a8.5,8.5,0,0,0,4.18,1.1h0a8,8,0,0,0,2.32-.34A8.45,8.45,0,0,0,94,115.12Z"/><rect class="cls-10" x="41" y="39" width="87" height="87"/></g></g></svg>