<svg id="Layer_1" data-name="Layer 1" xmlns="http://www.w3.org/2000/svg" viewBox="0 0 59.04 60"><defs><style>.cls-1{fill:#fff;}</style></defs><path class="cls-1" d="M120.23,13.45a1.43,1.43,0,0,1,.71,1.25,3.87,3.87,0,0,0,3.51,3.63c1,.13,1.38.44,1.36,1s-.43.91-1.41,1a3.94,3.94,0,0,0-3.46,3.44c0,.11,0,.23,0,.35-.09.69-.46,1.09-1,1.08s-.93-.41-1-1.1a4,4,0,0,0-3.82-3.8,1,1,0,0,1-1.09-1c0-.54.4-.92,1.09-1a3.91,3.91,0,0,0,3.8-3.8,1.36,1.36,0,0,1,.72-1.11Zm-1.63,5.86,1.31,1.35,1.34-1.3L119.9,18Z" transform="translate(-84.5 -13.45)"/><path class="cls-1" d="M103.41,36.07c.46-1.84.91-3.6,1.35-5.36a3,3,0,0,1,3.19-2.5q6.06,0,12.12,0a3,3,0,0,1,3.22,2.54c.44,1.75.88,3.51,1.34,5.32h8.85a4.87,4.87,0,0,1,4.94,3.69,5.85,5.85,0,0,1,.19,1.56q0,10.49,0,21a4.92,4.92,0,0,1-3.76,5.08,6.27,6.27,0,0,1-1.56.17H94.75a4.9,4.9,0,0,1-5.14-3.74,5.41,5.41,0,0,1-.18-1.5q0-10.52,0-21a4.89,4.89,0,0,1,3.68-5,6.31,6.31,0,0,1,1.62-.2h8.69ZM114,65.58h19.33a3,3,0,0,0,3.35-3.32V41.35a3,3,0,0,0-3.29-3.3h-9.14c-.9,0-1.18-.22-1.4-1.09q-.7-2.87-1.42-5.73c-.21-.82-.48-1-1.3-1H108c-.83,0-1.1.22-1.31,1l-1.41,5.68c-.24,1-.49,1.15-1.46,1.15H94.7a4.67,4.67,0,0,0-1,.07,2.94,2.94,0,0,0-2.31,3.1V62.14c0,2.3,1.15,3.44,3.46,3.44Z" transform="translate(-84.5 -13.45)"/><path class="cls-1" d="M128.86,20.35a.92.92,0,0,1,.87.86,8.14,8.14,0,0,0,.21,1.2,3.78,3.78,0,0,0,3.27,2.78c.22,0,.43,0,.64.09a.91.91,0,0,1,.8.94.89.89,0,0,1-.78,1,10.62,10.62,0,0,0-1.81.43,3.7,3.7,0,0,0-2.25,3.12,6.37,6.37,0,0,1-.1.63,1,1,0,0,1-1.86,0,5.45,5.45,0,0,1-.12-.81,4,4,0,0,0-3.31-3.32c-.23,0-.47-.05-.7-.09a1,1,0,0,1,0-1.9,4.66,4.66,0,0,0,2.46-.84,3.83,3.83,0,0,0,1.53-2.78C127.82,20.75,128.16,20.35,128.86,20.35Zm1.24,5.89L128.76,25l-1.28,1.28,1.3,1.33Z" transform="translate(-84.5 -13.45)"/><path class="cls-1" d="M143.52,20.35a1,1,0,0,1-1,.95,3.78,3.78,0,0,0-3,1.53,10.61,10.61,0,0,0-.84,2,1.31,1.31,0,0,0,0,.35,1,1,0,0,1-1,1,1,1,0,0,1-1-1,4.17,4.17,0,0,0-.83-2.33,4.11,4.11,0,0,0-3.09-1.55,1,1,0,0,1-1-1,1,1,0,0,1,.92-1l.4-.05a3.64,3.64,0,0,0,2.09-.83,3.89,3.89,0,0,0,1.49-2.87,1.07,1.07,0,0,1,.69-1.11c.68-.22,1.24.23,1.3,1.07a3.91,3.91,0,0,0,1.51,2.92,3.79,3.79,0,0,0,2.15.83C143.1,19.38,143.54,19.76,143.52,20.35Zm-7.27,0,1.35,1.33,1.35-1.3L137.68,19Z" transform="translate(-84.5 -13.45)"/><path class="cls-1" d="M95.3,23.29v1.94H86.5v8.83h-2c0-.21,0-.4,0-.59V24.69c0-1.09.32-1.4,1.39-1.4H95.3Z" transform="translate(-84.5 -13.45)"/><path class="cls-1" d="M84.5,62.66h2v8.79h8.82v2l-.51,0c-3,0-5.93,0-8.9,0-1,0-1.37-.32-1.37-1.36V62.66Z" transform="translate(-84.5 -13.45)"/><path class="cls-1" d="M141.54,62.67h2c0,.22,0,.41,0,.6v8.78c0,1.08-.33,1.39-1.4,1.39h-9.39v-2h8.79Z" transform="translate(-84.5 -13.45)"/><path class="cls-1" d="M114,40a11.79,11.79,0,1,1-11.81,11.75A11.83,11.83,0,0,1,114,40Zm0,21.61a9.83,9.83,0,1,0-9.84-9.83A9.86,9.86,0,0,0,114,61.63Z" transform="translate(-84.5 -13.45)"/><path class="cls-1" d="M93.37,43.4c0-.76,0-1.53,0-2.29A1,1,0,0,1,94.46,40q2.34,0,4.68,0a1,1,0,0,1,1.1,1.08q0,2.34,0,4.68c0,.75-.37,1.09-1.14,1.09-1.52,0-3,0-4.57,0-.82,0-1.14-.35-1.15-1.19S93.37,44.16,93.37,43.4Zm2-1.4v2.88h2.88V42Z" transform="translate(-84.5 -13.45)"/><path class="cls-1" d="M113.94,59.67A7.87,7.87,0,1,1,121.87,52,7.86,7.86,0,0,1,113.94,59.67Zm6-7.86a5.89,5.89,0,1,0-5.88,5.9A5.94,5.94,0,0,0,119.91,51.81Z" transform="translate(-84.5 -13.45)"/></svg>