<svg id="Layer_1" data-name="Layer 1" xmlns="http://www.w3.org/2000/svg" viewBox="0 0 60 59.83"><defs><style>.cls-1{fill:#fff;}</style></defs><path class="cls-1" d="M0,33.08a2.94,2.94,0,0,1,2.66-2.25,1.68,1.68,0,0,1,.81.06c.55.26.86,0,1.23-.37l8.09-8.09.39-.41a4.84,4.84,0,0,1,6.68-6.71c.12-.1.25-.2.37-.32q4.2-4.2,8.37-8.39a.88.88,0,0,0,.23-.67,2.87,2.87,0,0,1,1.92-3.71,1,1,0,0,0,.21-.1h1.17a2.94,2.94,0,0,1,2.24,2.49,2.82,2.82,0,0,1-3.55,3.11.83.83,0,0,0-1,.27c-1.43,1.46-2.89,2.89-4.34,4.33a5.18,5.18,0,0,0-.4.41C34.85,9,44,10.12,52.67,16.17c.4-.45.83-1,1.3-1.45a1,1,0,0,1,1.6,0q1.93,1.92,3.84,3.85a.94.94,0,0,1,0,1.56Q57.49,22,55.57,24A1,1,0,0,1,54,24l-3.86-3.83a1,1,0,0,1,0-1.61l1-1A25.44,25.44,0,0,0,21.48,17c.92,2.25.7,4.32-1.22,6a4.69,4.69,0,0,1-5.3.59C9.34,31,8.22,43.76,15.45,53.37c.33-.38.63-.77,1-1.11a1,1,0,0,1,1.57,0c1.3,1.3,2.58,2.6,3.86,3.9a1,1,0,0,1,0,1.53C20.56,59,19.27,60.26,18,61.55a.94.94,0,0,1-1.52,0q-2-2-3.92-3.93a.91.91,0,0,1,0-1.47c.5-.5,1-1,1.5-1.4C8,46.11,6.92,37,10.67,27.25l-.26.2L5.78,32.07a.59.59,0,0,0-.22.7,2.82,2.82,0,0,1-1.79,3.61A2.86,2.86,0,0,1,.14,34.6c0-.08-.09-.16-.14-.24ZM20.12,19.36a2.92,2.92,0,0,0-2.89-3,3,3,0,0,0-3,2.93,2.92,2.92,0,0,0,5.84,0ZM17.19,59.51l2.64-2.65L17.2,54.23l-2.64,2.65ZM54.78,21.94l2.63-2.64-2.62-2.61-2.62,2.62ZM31.57,4a1,1,0,1,0,1,1A1,1,0,0,0,31.57,4ZM3.85,33.68a1,1,0,0,0-.94-1,.87.87,0,0,0-1,.88,1,1,0,0,0,1,1A.89.89,0,0,0,3.85,33.68Z" transform="translate(0 -2.12)"/><path class="cls-1" d="M60,46.38a8.54,8.54,0,0,1-.72,1q-3.9,3.93-7.84,7.85l-6,6c-1,1-1.5.94-2.16-.37-.85-1.71-1.69-3.42-2.57-5.11a1.57,1.57,0,0,0-.77-.69q-4.6-1.81-9.25-3.56a1.62,1.62,0,0,1-1-1Q24.94,38.75,20.21,27a1.26,1.26,0,0,1,.32-1.57c1-.92,1.91-1.88,2.85-2.84a1.1,1.1,0,0,1,1.32-.28L48.53,31.8a1.48,1.48,0,0,1,.86.95c1.17,3.07,2.36,6.13,3.52,9.2a1.57,1.57,0,0,0,.86.94c1.78.87,3.56,1.75,5.32,2.67A5.46,5.46,0,0,1,60,46.38ZM24,24.67l12,12c3.26-1.53,6-1,7.68,1.45a5.5,5.5,0,1,1-9.11,0l-12-12c-.34.18-.47.43-.28.9q4.48,11.14,9,22.29a1.29,1.29,0,0,0,.64.64c2.86,1.13,5.73,2.21,8.59,3.34a.71.71,0,0,0,.9-.22q4.78-4.83,9.62-9.62a.76.76,0,0,0,.21-.95c-1.09-2.79-2.17-5.58-3.22-8.38a1.41,1.41,0,0,0-.88-.9Q36,28.82,25,24.38C24.48,24.19,24.2,24.23,24,24.67ZM52.69,44.44,42.31,54.82l2.23,4.44L57.12,46.68s0,0-.07,0Zm-17.2-3.23a3.63,3.63,0,1,0,3.66-3.59A3.58,3.58,0,0,0,35.49,41.21Z" transform="translate(0 -2.12)"/></svg>