<svg id="Layer_1" data-name="Layer 1" xmlns="http://www.w3.org/2000/svg" viewBox="0 0 59.88 60"><defs><style>.cls-1{fill:#fff;}</style></defs><path class="cls-1" d="M41.79,5.49a5.81,5.81,0,0,1,2.57,1.27l-1.3,1.48a3.88,3.88,0,0,0-2.82-.76H19.38a3,3,0,0,0-3.19,2.29,11,11,0,0,0-.13,1.68H32v2H16.14V18.8c.55-.07,1.11-.12,1.65-.24a.58.58,0,0,0,.28-.45c0-.86,0-1.71,0-2.6h2v3c.66.12,1.25.21,1.84.33A12.94,12.94,0,0,1,32,29.94c0,.42.18.56.61.55.82,0,1.63,0,2.49,0v2c-.82,0-1.63,0-2.44,0-.48,0-.62.15-.67.62a12.9,12.9,0,0,1-10,11c-.6.13-1.22.21-1.89.33v3h-2c0-.87,0-1.72,0-2.57,0-.31-.09-.44-.42-.48A12.91,12.91,0,0,1,6.16,32.75a1.32,1.32,0,0,0,0-.25h-3v-2H6c.25-1,.41-2,.72-3a12.68,12.68,0,0,1,6.84-7.76.75.75,0,0,0,.5-.79c0-2.71,0-5.43,0-8.14A5,5,0,0,1,16.93,6a10.29,10.29,0,0,1,1.54-.51Zm-26,27.79a5.08,5.08,0,0,1-.29-7.34,5,5,0,0,1,6.75-.31A4.84,4.84,0,0,1,24.05,29a5.06,5.06,0,0,1-1.74,4.27,7.2,7.2,0,0,1,2.86,2.77A8,8,0,0,1,26.11,40,11,11,0,0,0,30,32.48H28.12v-2H30c-.24-5.38-5.27-9.79-9.88-9.82v1.79h-2V20.61a10.81,10.81,0,0,0-9.86,9.88H10v2H8.14A11.12,11.12,0,0,0,12.06,40,7.25,7.25,0,0,1,15.82,33.28Zm4.27,9.14a10.26,10.26,0,0,0,3.77-1.05.56.56,0,0,0,.22-.41A17.26,17.26,0,0,0,24,38.8a4.69,4.69,0,0,0-3.47-4.06,4.73,4.73,0,0,0-5.12,1.4,5.79,5.79,0,0,0-1.34,4.23,1.14,1.14,0,0,0,.88,1.32,10.55,10.55,0,0,0,3.16.7V40.55h2Zm-1-10a3,3,0,0,0,3-2.95,3,3,0,0,0-3-3,3,3,0,0,0-3,3A3,3,0,0,0,19.06,32.47Z" transform="translate(-0.07 -5.49)"/><path class="cls-1" d="M60,29.74c-1.51,1.81-3,3.63-4.54,5.4-3.31,3.8-6.66,7.56-10,11.35a1.77,1.77,0,0,0-.41.86A7,7,0,0,1,38,53.49c-2.19,0-4.37,0-6.56,0-.56,0-1.07-.11-1.26-.73s.19-1,.67-1.28a2.62,2.62,0,0,0,1.27-2.42,10.46,10.46,0,0,1,.39-3.82,6.94,6.94,0,0,1,5.83-4.71,1.24,1.24,0,0,0,.62-.24c1.77-1.54,3.52-3.09,5.24-4.61V25.53h1.92V34l.69-.57c2.53-2.23,5.13-4.4,7.58-6.72C56.06,25,58.77,25,60,27.63ZM44.05,45l.28-.33,13.22-15a2.66,2.66,0,0,0,.42-.63,1,1,0,0,0-.25-1.23,1.08,1.08,0,0,0-1.24-.26,2.8,2.8,0,0,0-.67.47L44.26,38.25l-3.72,3.28,3,3C43.67,44.67,43.84,44.82,44.05,45ZM33.51,51.44a3.21,3.21,0,0,0,.4.05c1.52,0,3,0,4.56-.07A4.82,4.82,0,0,0,43,47.2a.75.75,0,0,0-.17-.54c-1.29-1.31-2.58-2.61-3.89-3.89a.76.76,0,0,0-.55-.21,4.86,4.86,0,0,0-3.17,1.79,5.29,5.29,0,0,0-1.14,3.48A6.83,6.83,0,0,1,33.51,51.44Z" transform="translate(-0.07 -5.49)"/><path class="cls-1" d="M46.07,23.49H35.59c-1.22,0-1.52-.3-1.52-1.52V11c0-1.24.29-1.54,1.51-1.54h21c1.18,0,1.48.3,1.48,1.49V22c0,1.15-.31,1.45-1.47,1.45Zm10-12H36.11v9.93H56.05Z" transform="translate(-0.07 -5.49)"/><path class="cls-1" d="M14.08,50.49v-5h2v5h.7c2,0,4,0,6,0,1,0,1.35.34,1.36,1.33v7.32c0,1-.35,1.33-1.34,1.34H1.42c-1,0-1.34-.34-1.34-1.33q0-3.66,0-7.32c0-1,.34-1.34,1.34-1.34,4,0,8,0,12,0Zm8,2h-20v5.89h20Z" transform="translate(-0.07 -5.49)"/><path class="cls-1" d="M14.76,63l1.71-1a3.08,3.08,0,0,0,2.29,1.45,6.61,6.61,0,0,0,.76.05H40.67a3.07,3.07,0,0,0,3.41-3.4c0-.84,0-1.67,0-2.59h-18v-2H44.06v-4h2c0,.17,0,.32,0,.47,0,2.73,0,5.47,0,8.2a5,5,0,0,1-3.76,5.09,5.81,5.81,0,0,1-1.5.18H19.26a5.06,5.06,0,0,1-4.06-1.87A5.91,5.91,0,0,1,14.76,63Z" transform="translate(-0.07 -5.49)"/><path class="cls-1" d="M6.11,9.48h4.63c1,0,1.33.34,1.33,1.34q0,3.66,0,7.32c0,1-.32,1.34-1.33,1.34H1.42c-1,0-1.34-.34-1.34-1.33q0-3.66,0-7.33c0-1,.35-1.34,1.34-1.34Zm-4,2v5.93H10V11.51Z" transform="translate(-0.07 -5.49)"/><path class="cls-1" d="M31,61.46H29.13V59.53H31Z" transform="translate(-0.07 -5.49)"/><path class="cls-1" d="M38.07,17.51H54v1.95l-.59,0c-4.9,0-9.8,0-14.7,0-.53,0-.75-.12-.69-.68A11.09,11.09,0,0,0,38.07,17.51Z" transform="translate(-0.07 -5.49)"/><path class="cls-1" d="M54.05,13.51v1.92H44.13V13.51Z" transform="translate(-0.07 -5.49)"/><path class="cls-1" d="M42,13.52v1.92H38.11V13.52Z" transform="translate(-0.07 -5.49)"/><path class="cls-1" d="M20,56.46H11.13V54.52H20Z" transform="translate(-0.07 -5.49)"/><path class="cls-1" d="M4.1,54.51h5v1.92h-5Z" transform="translate(-0.07 -5.49)"/><path class="cls-1" d="M4.09,15.44V13.52H8v1.92Z" transform="translate(-0.07 -5.49)"/></svg>