<svg id="Layer_1" data-name="Layer 1" xmlns="http://www.w3.org/2000/svg" viewBox="0 0 60 60"><defs><style>.cls-1{fill:#fff;}</style></defs><path class="cls-1" d="M11.25,1V-44.1a3.34,3.34,0,0,1,2.46-2.46H68.79c1.95.78,2.46,1.53,2.46,3.67V0c0,2.28-1.18,3.45-3.47,3.45H50.87c.67,1.34,1.29,2.59,1.94,3.83.06.11.33.16.5.16,1,0,1.91,0,2.87,0a3,3,0,1,1,0,6H26.31a3,3,0,1,1,0-6c1,0,2,0,2.93,0,.15,0,.39-.05.45-.16C30.33,6,31,4.79,31.62,3.45h-17a3,3,0,0,1-3.28-2.34S11.27,1.05,11.25,1Zm58-5.6V-43.24c0-1-.34-1.32-1.41-1.32H14.65c-1.09,0-1.41.31-1.41,1.38v38.6Zm-56,2.05c0,1,0,2,0,2.94a1,1,0,0,0,1,1,5.61,5.61,0,0,0,.58,0H67.67a4.84,4.84,0,0,0,.76,0,.87.87,0,0,0,.79-.83c0-1,0-2,0-3.11Zm18.63,10H50.61c-.64-1.3-1.25-2.53-1.89-3.75-.06-.13-.31-.21-.48-.21h-14c-.16,0-.42.08-.48.21C33.13,4.89,32.53,6.12,31.88,7.42Zm9.36,2H26.78a5.76,5.76,0,0,0-.59,0,1,1,0,0,0-.93.94,1,1,0,0,0,.85,1,3.88,3.88,0,0,0,.59,0H55.8a2.81,2.81,0,0,0,.65,0,1,1,0,0,0-.1-1.95,5.76,5.76,0,0,0-.59,0Z" transform="translate(-11.25 46.56)"/><path class="cls-1" d="M33.25-13.7a35.79,35.79,0,0,1,1.93-3.36,7.88,7.88,0,0,1,11-2.1,11.08,11.08,0,0,1,3.67,4.9c.14.34.27.69.44,1.12.15-.36.28-.65.41-.94a10.62,10.62,0,0,1,4.41-5.38,13.47,13.47,0,0,1,2.67-1c.34-.1.56-.18.7-.56A3.93,3.93,0,0,1,63-23.48a4,4,0,0,1,3.23,3.78,3.92,3.92,0,0,1-3.15,4,4,4,0,0,1-4.71-2.85,16,16,0,0,0-1.62.52,7,7,0,0,0-3.05,2.73A16.84,16.84,0,0,0,51.32-9c0,.13,0,.27-.07.4-.13.66-.5,1-1,1s-.87-.43-1-1.08A45.68,45.68,0,0,0,48-13.45a9.61,9.61,0,0,0-1.58-2.78,5.89,5.89,0,0,0-9.52.15,14.23,14.23,0,0,0-2.46,6.13c-.08.44-.13.89-.2,1.33-.1.69-.47,1.07-1,1.06s-.87-.43-1-1.08A46.07,46.07,0,0,0,31-13.5a9.15,9.15,0,0,0-1.6-2.77,5.87,5.87,0,0,0-9.44.14A14,14,0,0,0,17.46-10c-.1.52-.14,1-.23,1.56a1,1,0,0,1-1.06.89,1,1,0,0,1-.92-1c.39-3.81,1.4-7.39,4.37-10.06a7.84,7.84,0,0,1,11.66,1.54A35.78,35.78,0,0,1,33.25-13.7Zm31-5.89a2,2,0,0,0-2-2,2,2,0,0,0-2,2,2,2,0,0,0,2,2A2,2,0,0,0,64.23-19.59Z" transform="translate(-11.25 46.56)"/><path class="cls-1" d="M36.24-31.58v-4.1a2.66,2.66,0,0,1,1.46-2.6,2.56,2.56,0,0,1,2.88.42c1.78,1.34,3.58,2.65,5.36,4a2.72,2.72,0,0,1,0,4.66c-1.82,1.35-3.64,2.68-5.46,4a2.5,2.5,0,0,1-2.78.36,2.6,2.6,0,0,1-1.47-2.48C36.23-28.73,36.24-30.16,36.24-31.58Zm9.08.07a6.38,6.38,0,0,0-.31-.56,2.15,2.15,0,0,0-.41-.32c-1.76-1.3-3.51-2.61-5.27-3.89-.2-.14-.57-.27-.71-.18s-.28.46-.37.72a1.12,1.12,0,0,0,0,.41v6.43c0,.57,0,1.13,0,1.7s.48.81,1,.45c1.89-1.38,3.76-2.78,5.64-4.18A3.06,3.06,0,0,0,45.32-31.51Z" transform="translate(-11.25 46.56)"/></svg>